{"title":"Step Up Quadrilogy 4DVDrip English Klam","uid":8318311,"size":6210220713,"categoryP":"video","categoryS":"movies","magnet":"?xt=urn:btih:cfaa8d0d9e255ff13ea0084ac1066a508db1d153&amp;dn=Step+Up+Quadrilogy+4DVDrip+English+Klam&amp;tr=udp%3A%2F%2Ftracker.openbittorrent.com%3A80&amp;tr=udp%3A%2F%2Fopen.demonii.com%3A1337&amp;tr=udp%3A%2F%2Ftracker.coppersurfer.tk%3A6969&amp;tr=udp%3A%2F%2Fexodus.desync.com%3A6969","seeders":0,"leechers":1,"uploader":"Klambake","files":-1,"time":1364639899,"description":"With: Channing Tatum, Mario and Jenna Dewan ea\n\nAlle 4 films van 2006 tot 2012,\nTyler Gage is een jonge roekeloze straatcrimineel, die in een vicieuze cirkel van moeilijkheden terechtkomt, nadat hij en zijn vrienden een auditorium van een hogeschool voor beeldende kunsten aan diggelen geslagen hebben. Door de rechter wordt hij veroordeeld tot een taakstraf in de getroffen school. Hij wil eerst niets te maken hebben met de leerlingen. Tot hij een knappe danseres ontmoet die bereid is hem een kans te geven. Tegen alle verwachtingen in belandt Tyler in haar leefwereld en ontdekt dat hijzelf ook talenten heeft om te dansen.\n\nAll 4 movies, Music and Dance\n\nStoryline\nEmily arrives in Miami with aspirations to become a professional dancer. She sparks with Sean, the leader of a dance crew whose neighborhood is threatened by Emily's father's development plans. \n &lt;a href=&quot;\nhttp://www.imdb.com/title/tt0462590&quot; rel=&quot;nofollow&quot; target=&quot;_NEW&quot;&gt;\nhttp://www.imdb.com/title/tt0462590&lt;/a&gt;\t\n\n------------------------ Dutch Friends ------------------------\n---------------------------------------------------------------\n- Bezoek ook eens mijn vrienden op: &lt;a href=&quot; http://www.Film-Test.nl&quot; rel=&quot;nofollow&quot; target=&quot;_NEW&quot;&gt; http://www.Film-Test.nl&lt;/a&gt; --\n----- voor mijn Nederlandse Sync. ondertitels ---- en meer ----\n------- http://www.Film-Test.nl ---- Over Films en meer -------\n---------------------------------------------------------------\n\nGeneral:\n\nComplete name                    : Step Up ColStep Up.avi\nFormat                           : AVI\nFormat/Info                      : Audio Video Interleave\nFile size                        : 1.66 GiB\nDuration                         : 1h 43mn\nOverall bit rate                 : 2 294 Kbps\n\nVideo:\n\nFormat                           : MPEG-4 Visual\nFormat profile                   : Simple@L3\nFormat settings, BVOP            : No\nFormat settings, QPel            : No\nFormat settings, GMC             : No warppoints\nFormat settings, Matrix          : Default (H.263)\nCodec ID                         : XVID\nCodec ID/Hint                    : XviD\nDuration                         : 1h 43mn\nBit rate                         : 1 900 Kbps\nWidth                            : 720 pixels\nHeight                           : 304 pixels\nDisplay aspect ratio             : 2.35:1\nFrame rate                       : 23.976 fps\nColor space                      : YUV\nChroma subsampling               : 4:2:0\nBit depth                        : 8 bits\nScan type                        : Progressive\nCompression mode                 : Lossy\nBits/(Pixel*Frame)               : 0.362\nStream size                      : 1.37 GiB (83%)\nWriting library                  : XviD 1.1.2 (UTC 2006-11-01)\n\nAudio:\n\nFormat                           : AC-3\nFormat/Info                      : Audio Coding 3\nMode extension                   : CM (complete main)\nCodec ID                         : 2000\nDuration                         : 1h 43mn\nBit rate mode                    : Constant\nBit rate                         : 384 Kbps\nChannel(s)                       : 6 channels\nChannel positions                : Front: L C R, Side: L R, LFE\nSampling rate                    : 48.0 KHz\nBit depth                        : 16 bits\nCompression mode                 : Lossy\nStream size                      : 284 MiB (17%)\nAlignment                        : Aligned on interleaves\nInterleave, duration             : 32 ms (0.77 video frame)\nInterleave, preload duration     : 288 ms","torrent":{"xt":"urn:btih:cfaa8d0d9e255ff13ea0084ac1066a508db1d153","amp;dn":"Step+Up+Quadrilogy+4DVDrip+English+Klam","amp;tr":["udp%3A%2F%2Ftracker.openbittorrent.com%3A80","udp%3A%2F%2Fopen.demonii.com%3A1337","udp%3A%2F%2Ftracker.coppersurfer.tk%3A6969","udp%3A%2F%2Fexodus.desync.com%3A6969"],"infoHash":"cfaa8d0d9e255ff13ea0084ac1066a508db1d153","infoHashBuffer":{"type":"Buffer","data":[207,170,141,13,158,37,95,241,62,160,8,74,193,6,106,80,141,177,209,83]},"announce":[],"urlList":[]}}